<svg id="Layer_1" height="512" viewBox="0 0 64 64" width="512" xmlns="http://www.w3.org/2000/svg" xmlns:xlink="http://www.w3.org/1999/xlink" data-name="Layer 1"><linearGradient id="linear-gradient" gradientUnits="userSpaceOnUse" x1="9.039" x2="55.568" y1="12.773" y2="59.302"><stop offset="0" stop-color="#bbec6a"/><stop offset=".109" stop-color="#b8eb69"/><stop offset=".195" stop-color="#aeea64"/><stop offset=".274" stop-color="#9de75c"/><stop offset=".348" stop-color="#85e351"/><stop offset=".419" stop-color="#67de43"/><stop offset=".456" stop-color="#54db3a"/><stop offset="1" stop-color="#54db3a"/></linearGradient><linearGradient id="linear-gradient-2" gradientUnits="userSpaceOnUse" x1="48.1" x2="59.43" y1="28.301" y2="28.301"><stop offset="0" stop-color="#00bb3a"/><stop offset=".378" stop-color="#1ab849"/><stop offset="1" stop-color="#4cb366"/></linearGradient><linearGradient id="linear-gradient-3" gradientUnits="userSpaceOnUse" x1="31.75" x2="59.43" y1="43.96" y2="43.96"><stop offset="0" stop-color="#00bb3a"/><stop offset=".102" stop-color="#0bc032"/><stop offset=".485" stop-color="#2ed217"/><stop offset=".798" stop-color="#44dd06"/><stop offset="1" stop-color="#4ce100"/></linearGradient><linearGradient id="linear-gradient-4" gradientUnits="userSpaceOnUse" x1="27.51" x2="39.54" y1="17.24" y2="29.27"><stop offset="0" stop-color="#4ce100"/><stop offset=".202" stop-color="#44dd06"/><stop offset=".515" stop-color="#2ed217"/><stop offset=".898" stop-color="#0bc032"/><stop offset="1" stop-color="#00bb3a"/></linearGradient><linearGradient id="linear-gradient-5" gradientUnits="userSpaceOnUse" x1="19.26" x2="37.17" y1="52.135" y2="52.135"><stop offset="0" stop-color="#fcf273"/><stop offset=".651" stop-color="#fbb754"/><stop offset="1" stop-color="#fb9d46"/></linearGradient><linearGradient id="linear-gradient-6" gradientUnits="userSpaceOnUse" x1="12.19" x2="59.43" y1="36.925" y2="36.925"><stop offset="0" stop-color="#fff"/><stop offset=".5" stop-color="#eaeafb"/><stop offset="1" stop-color="#d0d0f7"/></linearGradient><linearGradient id="linear-gradient-7" gradientUnits="userSpaceOnUse" x1="4.573" x2="14.927" y1="28.781" y2="28.781"><stop offset="0" stop-color="#412943"/><stop offset="1" stop-color="#5d5360"/></linearGradient><linearGradient id="linear-gradient-8" gradientUnits="userSpaceOnUse" x1="35.335" x2="53.794" y1="35.295" y2="35.295"><stop offset="0" stop-color="#fc6559"/><stop offset="1" stop-color="#ec4547"/></linearGradient><linearGradient id="linear-gradient-9" gradientUnits="userSpaceOnUse" x1="41.79" x2="47.34" y1="29.17" y2="34.72"><stop offset="0" stop-color="#fff"/><stop offset=".706" stop-color="#dfdffa"/><stop offset="1" stop-color="#d0d0f7"/></linearGradient><path d="m4.573 17.24h52.854a2 2 0 0 1 2 2v35.375a2 2 0 0 1 -2 2h-46.781a6.073 6.073 0 0 1 -6.073-6.073v-33.302a0 0 0 0 1 0 0z" fill="url(#linear-gradient)"/><path d="m59.43 19.24v19.87l-11.33-11.33 10.278-10.288a1.987 1.987 0 0 1 1.052 1.748z" fill="url(#linear-gradient-2)"/><path d="m59.43 46.18v8.43a2 2 0 0 1 -2 2h-13.19l-12.49-12.49 12.81-12.81z" fill="url(#linear-gradient-3)"/><path d="m51.57 17.24-24.06 24.06v-24.06z" fill="url(#linear-gradient-4)"/><path d="m37.17 56.61h-17.91l8.96-8.95z" fill="url(#linear-gradient-5)"/><path d="m59.43 39.11v7.07l-14.87-14.87-12.81 12.81 12.49 12.49h-7.07l-8.95-8.95-8.96 8.95h-7.07l10.32-10.32v-29.05h5v24.06l24.06-24.06h5.86a2.273 2.273 0 0 1 .26.02 2.034 2.034 0 0 1 .24.05 2.224 2.224 0 0 1 .45.18l-10.28 10.29z" fill="url(#linear-gradient-6)"/><path d="m11.01 43.74h3.917v-36.355a10.354 10.354 0 0 0 -10.354 10.355v32.437a6.438 6.438 0 0 1 6.437-6.437z" fill="url(#linear-gradient-7)"/><path d="m44.565 47.931s-9.229-7.713-9.229-16.043a9.229 9.229 0 0 1 18.459 0c-.001 8.331-9.23 16.043-9.23 16.043z" fill="url(#linear-gradient-8)"/><circle cx="44.565" cy="31.945" fill="url(#linear-gradient-9)" r="3.924"/></svg>